<?xml version="1.0" encoding="utf-8"?>
<!-- Generator: Adobe Illustrator 19.1.0, SVG Export Plug-In . SVG Version: 6.00 Build 0)  -->
<svg version="1.1" id="devnet-logo" xmlns="http://www.w3.org/2000/svg" xmlns:xlink="http://www.w3.org/1999/xlink" x="0px"
	 y="0px" viewBox="0 0 164.5 164.5" style="enable-background:new 0 0 164.5 164.5;" xml:space="preserve">
<style type="text/css">
	.st0{fill:#FFFFFF;}
	.st1{fill:#F18C21;}
	.st2{opacity:5.000000e-02;}
	.st3{clip-path:url(#SVGID_2_);}
	.st4{clip-path:url(#SVGID_4_);}
	.st5{clip-path:url(#SVGID_6_);}
	.st6{clip-path:url(#SVGID_8_);}
	.st7{clip-path:url(#SVGID_10_);}
	.st8{clip-path:url(#SVGID_12_);}
	.st9{fill:#92C83E;}
	.st10{fill:#D26D39;}
	.st11{fill:#CF463C;}
	.st12{fill:#60B2A1;}
	.st13{fill:#1C75BC;}
	.st14{fill:#919092;}
	.st15{fill:#B0B1B2;}
	.st16{fill:#8C8E90;}
	.st17{fill:#3B3C3D;}
	.st18{fill:#CDCFD0;}
	.st19{fill:#F9CF11;}
	.st20{fill:#C7C8CA;}
	.st21{fill:#737577;}
	.st22{fill:#ED2224;}
	.st23{fill:#48494B;}
	.st24{opacity:2.999880e-02;}
	.st25{fill:#4B4B4E;}
</style>
<g>
	<path class="st9" d="M164.5,82.3c0,45.4-36.8,82.3-82.3,82.3C36.8,164.5,0,127.7,0,82.3C0,36.8,36.8,0,82.3,0
		C127.7,0,164.5,36.8,164.5,82.3"/>
</g>
<g>
	<path class="st0" d="M111,70.2H95.1c-2.9,0-5.3-2.4-5.3-5.3V50.8c0-0.4,0.1-0.7,0.2-1.1H59.5c-1.7,0-3.2,0.7-4.3,1.8
		c-1.1,1.1-1.8,2.6-1.8,4.3v52.9c0,1.7,0.7,3.2,1.8,4.3c1.1,1.1,2.6,1.8,4.3,1.8h45.6c1.7,0,3.2-0.7,4.3-1.8
		c1.1-1.1,1.8-2.6,1.8-4.3V70.2C111.1,70.2,111,70.2,111,70.2 M63.3,64.7h21.3c0.6,0,1.1,0.5,1.1,1.1c0,0.6-0.5,1.1-1.1,1.1H63.3
		c-0.6,0-1.1-0.5-1.1-1.1C62.1,65.2,62.6,64.7,63.3,64.7 M63.3,76.9h39.6c0.6,0,1.1,0.5,1.1,1.1c0,0.6-0.5,1.1-1.1,1.1H63.3
		c-0.6,0-1.1-0.5-1.1-1.1C62.1,77.4,62.6,76.9,63.3,76.9 M75,104c-0.9,1.1-2.2,1.8-3.9,2v0.7c0,0.6-0.2,1.1-0.6,1.5
		c-0.4,0.4-0.9,0.6-1.5,0.6c-0.5,0-1-0.2-1.4-0.7c-0.4-0.4-0.6-0.9-0.6-1.5V106c-1.9-0.3-3.3-0.9-4.4-1.9c-0.8-0.6-1.2-1.3-1.2-2.1
		c0-0.7,0.2-1.2,0.7-1.7c0.5-0.5,1-0.7,1.7-0.7c0.6,0,1.2,0.2,1.7,0.7c0.5,0.4,1.1,0.7,1.8,0.9c0.7,0.2,1.4,0.4,2,0.4
		c1.6,0,2.3-0.5,2.3-1.4c0-0.4-0.3-0.8-0.8-1c-0.5-0.2-1.3-0.5-2.4-0.7c-2.3-0.5-4-1.2-5.1-2.1c-1-0.9-1.6-2.2-1.6-3.9
		c0-1.3,0.5-2.5,1.4-3.5c0.9-1,2.2-1.7,3.7-2v-0.6c0-0.6,0.2-1.1,0.6-1.5c0.4-0.4,0.9-0.7,1.4-0.7c0.6,0,1.1,0.2,1.5,0.6
		c0.4,0.4,0.6,0.9,0.6,1.5v0.5c1.7,0.2,3,0.7,3.9,1.5c0.5,0.4,0.8,1,0.8,1.8c0,0.6-0.2,1.1-0.6,1.6c-0.4,0.4-0.9,0.6-1.6,0.6
		c-0.4,0-1-0.2-1.7-0.5c-0.9-0.5-1.8-0.7-2.9-0.7c-0.7,0-1.3,0.1-1.7,0.4c-0.4,0.3-0.6,0.6-0.6,0.9c0,0.2,0.1,0.4,0.2,0.5
		c0.1,0.2,0.3,0.3,0.7,0.4c0.3,0.1,0.7,0.2,1,0.3c0.3,0.1,0.8,0.2,1.5,0.3c2.4,0.6,4.1,1.3,5,2.2c1,0.9,1.4,2.2,1.4,3.8
		C76.4,101.6,76,102.9,75,104 M102.9,103.7H81.4c-0.6,0-1.1-0.5-1.1-1.1c0-0.6,0.5-1.1,1.1-1.1h21.5c0.6,0,1.1,0.5,1.1,1.1
		C104,103.2,103.5,103.7,102.9,103.7 M102.9,91.5H81.4c-0.6,0-1.1-0.5-1.1-1.1c0-0.6,0.5-1.1,1.1-1.1h21.5c0.6,0,1.1,0.5,1.1,1.1
		C104,90.9,103.5,91.5,102.9,91.5"/>
</g>
<g>
	<path class="st0" d="M92.6,49.8c0.2,0.1,0.4,0.2,0.6,0.5L110.5,67v0l0.1,0c0.3,0.2,0.5,0.5,0.5,0.6c0,0,0,0.1-0.1,0.2
		c-0.1,0-0.3,0-0.5,0v0c-0.1,0-0.2,0-0.3,0c0,0,0,0,0,0H95.1c-0.5,0-1-0.2-1.4-0.4c-0.3-0.1-0.5-0.3-0.7-0.5
		c-0.2-0.2-0.4-0.5-0.5-0.8c0-0.1-0.1-0.1-0.1-0.2c-0.2-0.4-0.2-0.8-0.2-1.2V50.8c0,0,0-0.1,0-0.1c0-0.3,0.1-0.6,0.1-0.7
		c0-0.1,0.1-0.2,0.1-0.2l0,0h0h0l0,0h0l0,0l0,0h0l0,0C92.3,49.7,92.4,49.8,92.6,49.8"/>
</g>
</svg>
